<svg id="SvgjsSvg1608" width="328.1691259423048" height="326.1266662597656" xmlns="http://www.w3.org/2000/svg" version="1.1" xmlns:xlink="http://www.w3.org/1999/xlink" xmlns:svgjs="http://svgjs.com/svgjs"><defs id="SvgjsDefs1609"></defs><g id="SvgjsG1610" transform="scale(1.5460042912476748)" opacity="1"><g id="SvgjsG1611" class="ryLqaZJJX" transform="translate(1.4210854715202004e-14, -0.3649028980478816) scale(2.085159275376263)" light-content="false" fill="#3e72af"><path fill="#3e72af" d="M101.8 83.6c-.1-9.8-.1-19.7-.2-29.5 0-6 .1-12.2-.2-18-.1-2.5-.1-5.1-.1-7.8 0-4.7-.1-9-.4-13.2-.1-1.3-.1-2.8-.2-4.2-.1-2.7-.2-5.3-.3-8V1.1h-.7c-2.2.1-4.4.1-6.5.1-5.4-.1-10.6-.3-16-.4-1.6 0-3.4.1-5.1.1-1.8 0-3.7.1-5.5.1-2.6.1-4.4.3-5.5.6-.4.1-.6.2-.6.3H49.8c-.1-.2-.8-.3-2.2-.4-4.4-.3-8.7-.7-13.2-1C28.2.1 21.6 0 15.6.6 12.3.6 9 .8 4.6.9c-1-.1-2-.3-3.1-.3L.4.5.3 1.7c-.2 2-.2 4.3-.2 7 0 3.4-.1 6.8-.1 10.2v8c0 2.9.1 5.1.4 6.9.1.8.3 1.8.3 2.9.1 3.8.4 4.8.8 5.5v17.6c-.1.1-.1.3-.2.5.1 4-.1 7.6-.2 11.4C.8 79 .7 86.6 1 94.1c.1 2 .2 4 .5 4.9v.8H6c-.1.1-.2.1-.2.2 1.8 0 3.7.1 5.4.1 3.6-.1 6.4.1 8.6.4 1.1.2 2.1.3 3.8.3 6.6-.1 12.7.1 18.9.4 2.1.1 4.5.2 6.7.1 4.7-.1 9.3-.2 13.9-.3 6.1-.1 11.9-.5 18.3-.5h9.7c1.2 0 2.8-.1 3.5-.2.9-.2 1.9-.3 2.8-.5h2.3v-1c.3 1.6.6 1.4 1-.8.1-.6.2-1.4.3-2 .2-1.2.3-2.6.5-3.4.3-2.1.3-5.7.3-9z"></path></g><g id="SvgjsG1612" class="text" transform="translate(33.99461090870392, 116.53904907237113)" light-content="true" fill="#ffffff"><path d="M4.5 0L9.7 0L9.7 -48.3L10.05 -48.3L23.48 0L27.49 0L40.92 -48.3L41.27 -48.3L41.27 0L46.48 0L46.48 -53.26L37.05 -53.26L25.66 -12.37L25.31 -12.37L13.92 -53.26L4.5 -53.26Z M55.97 0L61.17 0L61.17 -53.26L55.97 -53.26Z M67.32 -12.94L67.61 -12.2C68.05 -10.91 68.81 -9.39 69.89 -7.63C70.48 -6.67 71.26 -5.71 72.23 -4.75C73.2 -3.79 74.29 -2.91 75.5 -2.11C76.71 -1.31 78.2 -0.67 79.98 -0.18C81.76 0.32 83.57 0.56 85.41 0.56C87.25 0.56 88.86 0.38 90.25 0C93.93 -1.03 96.67 -3.14 98.47 -6.33C99.93 -8.84 100.65 -11.24 100.65 -13.54C100.65 -16.7 99.96 -19.39 98.58 -21.62C96.54 -24.9 92.8 -27.37 87.36 -29.04L84.41 -29.95C83.31 -30.28 82.57 -30.52 82.2 -30.67C81.82 -30.83 81.23 -31.05 80.42 -31.34C79.61 -31.63 78.91 -31.93 78.31 -32.24C77.71 -32.54 76.98 -33.04 76.11 -33.71C74.52 -34.96 73.72 -37.11 73.72 -40.18C73.72 -43 74.63 -45.25 76.43 -46.95C78.23 -48.65 80.58 -49.5 83.46 -49.5C85.41 -49.5 87.15 -49.08 88.7 -48.23C89.33 -47.88 89.92 -47.42 90.47 -46.85C91.03 -46.27 91.47 -45.74 91.81 -45.26C92.15 -44.78 92.48 -44.19 92.79 -43.49C93.11 -42.79 93.33 -42.23 93.46 -41.84C93.59 -41.44 93.74 -40.93 93.92 -40.31C94.1 -39.69 94.21 -39.32 94.25 -39.2L98.82 -40.96C98.75 -41.1 98.57 -41.58 98.26 -42.4L97.24 -45C96.89 -45.87 96.32 -46.85 95.52 -47.95C94.72 -49.05 93.83 -50.03 92.83 -50.87C91.83 -51.71 90.52 -52.42 88.89 -53C87.26 -53.57 85.39 -53.86 83.27 -53.86C81.15 -53.86 79.12 -53.45 77.2 -52.63C75.28 -51.81 73.7 -50.74 72.46 -49.43C69.83 -46.57 68.52 -43.49 68.52 -40.18C68.52 -37.39 69.21 -34.96 70.59 -32.87C72.59 -29.87 76.48 -27.41 82.27 -25.49L85.61 -24.33C86.82 -23.91 87.81 -23.54 88.56 -23.24C91.11 -22.18 92.9 -20.9 93.92 -19.39C94.94 -17.88 95.45 -15.8 95.45 -13.17C95.45 -10.53 94.64 -8.31 93.02 -6.5C91.41 -4.7 88.95 -3.8 85.64 -3.8C82.34 -3.8 79.68 -4.51 77.66 -5.94C76.75 -6.57 75.94 -7.28 75.25 -8.05C74.56 -8.82 74.03 -9.6 73.65 -10.37C73.28 -11.14 72.98 -11.85 72.76 -12.48C72.53 -13.11 72.38 -13.63 72.3 -14.03C72.22 -14.43 72.16 -14.62 72.14 -14.62Z M106.98 0L112.18 0L112.18 -24.33L124.17 -24.33L133.88 0L139.57 0L129.52 -25.17C133.22 -25.97 135.89 -27.8 137.53 -30.66C139.03 -33.26 139.78 -36.13 139.78 -39.27C139.78 -41.87 139.02 -44.36 137.5 -46.72C134.71 -51.08 130.51 -53.26 124.91 -53.26L106.98 -53.26ZM112.18 -28.69L112.18 -48.9L121.71 -48.9C123.54 -48.9 125.23 -48.7 126.77 -48.3C131.98 -46.95 134.58 -43.85 134.58 -39.02C134.58 -35.39 133.62 -32.72 131.7 -31.01C129.96 -29.46 127.86 -28.69 125.4 -28.69Z"></path></g><g id="SvgjsG1613" class="text" transform="translate(22.239614251332398, 148.02905075083794)" light-content="true" fill="#ffffff"><path d="M11.3 0.03C12.03 -0.12 12.78 -0.33 13.55 -0.62L13.34 -3.73L12.34 -3.73L11.66 -1.46C10.8 -1.19 9.95 -1.05 9.1 -1.05C7.14 -1.05 5.72 -1.76 4.85 -3.17C3.97 -4.59 3.54 -6.31 3.54 -8.34C3.54 -13.18 5.42 -15.61 9.18 -15.61C9.88 -15.61 10.71 -15.51 11.66 -15.31L12.34 -12.69L13.31 -12.69L13.55 -16.12C12.73 -16.39 11.97 -16.59 11.29 -16.73C10.6 -16.86 9.76 -16.93 8.75 -16.93C6.14 -16.93 4.21 -16.14 2.97 -14.55C1.73 -12.97 1.11 -10.9 1.11 -8.34C1.11 -5.8 1.73 -3.74 2.98 -2.15C4.23 -0.55 6.16 0.24 8.75 0.24C9.72 0.24 10.57 0.17 11.3 0.03Z M29.41 -3.35L31 0L34.94 0L34.94 -0.89L32.84 -1.46C32.28 -2.52 31.73 -3.64 31.19 -4.83C30.79 -5.66 30.5 -6.24 30.31 -6.57C30.12 -6.91 29.9 -7.18 29.65 -7.38C29.4 -7.59 29.05 -7.76 28.6 -7.88C30.02 -8.21 31.03 -8.78 31.62 -9.61C32.22 -10.44 32.51 -11.35 32.51 -12.34C32.51 -13.53 32.04 -14.52 31.08 -15.31C30.13 -16.1 28.68 -16.5 26.73 -16.5L20.17 -16.5L20.17 -15.61L22.68 -15.07L22.68 -1.43L20.17 -0.89L20.17 0L27.44 0L27.44 -0.89L24.93 -1.43L24.93 -7.53L25.95 -7.53C26.51 -7.53 26.91 -7.47 27.14 -7.34C27.37 -7.22 27.63 -6.91 27.91 -6.41C28.19 -5.92 28.69 -4.9 29.41 -3.35ZM29.16 -9.58C28.57 -8.94 27.71 -8.61 26.57 -8.61L24.93 -8.61L24.93 -15.09C25.56 -15.27 26.12 -15.36 26.63 -15.36C27.76 -15.36 28.62 -15.08 29.19 -14.51C29.77 -13.95 30.06 -13.17 30.06 -12.18C30.06 -11.1 29.76 -10.23 29.16 -9.58Z M53.12 -14.53C51.86 -16.11 49.9 -16.9 47.26 -16.9C44.61 -16.9 42.65 -16.11 41.37 -14.51C40.09 -12.92 39.46 -10.85 39.46 -8.32C39.46 -5.78 40.1 -3.72 41.39 -2.13C42.67 -0.55 44.63 0.24 47.26 0.24C49.89 0.24 51.83 -0.55 53.1 -2.13C54.37 -3.72 55.01 -5.78 55.01 -8.32C55.01 -10.87 54.38 -12.94 53.12 -14.53ZM51.35 -13.42C52.17 -11.96 52.58 -10.26 52.58 -8.32C52.58 -6.37 52.2 -4.68 51.44 -3.23C50.69 -1.78 49.32 -1.05 47.34 -1.05C45.34 -1.05 43.93 -1.78 43.11 -3.24C42.29 -4.7 41.89 -6.39 41.89 -8.32C41.89 -10.28 42.27 -11.98 43.03 -13.43C43.8 -14.88 45.15 -15.61 47.1 -15.61C49.11 -15.61 50.53 -14.88 51.35 -13.42Z M71.6 0.03C72.33 -0.12 73.08 -0.33 73.86 -0.62L73.64 -3.73L72.64 -3.73L71.97 -1.46C71.1 -1.19 70.25 -1.05 69.4 -1.05C67.44 -1.05 66.02 -1.76 65.15 -3.17C64.28 -4.59 63.84 -6.31 63.84 -8.34C63.84 -13.18 65.72 -15.61 69.48 -15.61C70.19 -15.61 71.01 -15.51 71.97 -15.31L72.64 -12.69L73.61 -12.69L73.86 -16.12C73.03 -16.39 72.27 -16.59 71.59 -16.73C70.91 -16.86 70.06 -16.93 69.05 -16.93C66.44 -16.93 64.52 -16.14 63.27 -14.55C62.03 -12.97 61.41 -10.9 61.41 -8.34C61.41 -5.8 62.04 -3.74 63.29 -2.15C64.54 -0.55 66.46 0.24 69.05 0.24C70.02 0.24 70.87 0.17 71.6 0.03Z M94.17 -14.53C92.91 -16.11 90.95 -16.9 88.31 -16.9C85.66 -16.9 83.7 -16.11 82.42 -14.51C81.14 -12.92 80.5 -10.85 80.5 -8.32C80.5 -5.78 81.15 -3.72 82.43 -2.13C83.72 -0.55 85.68 0.24 88.31 0.24C90.93 0.24 92.88 -0.55 94.15 -2.13C95.42 -3.72 96.06 -5.78 96.06 -8.32C96.06 -10.87 95.43 -12.94 94.17 -14.53ZM92.4 -13.42C93.22 -11.96 93.63 -10.26 93.63 -8.32C93.63 -6.37 93.25 -4.68 92.49 -3.23C91.74 -1.78 90.37 -1.05 88.39 -1.05C86.39 -1.05 84.98 -1.78 84.16 -3.24C83.34 -4.7 82.93 -6.39 82.93 -8.32C82.93 -10.28 83.32 -11.98 84.08 -13.43C84.85 -14.88 86.2 -15.61 88.14 -15.61C90.16 -15.61 91.58 -14.88 92.4 -13.42Z M115.57 -14.4C114.28 -15.8 112.24 -16.5 109.45 -16.5L102.38 -16.5L102.38 -15.61L104.81 -15.07L104.81 -1.43L102.38 -0.89L102.38 0L109.91 0C112.5 0 114.41 -0.79 115.65 -2.38C116.88 -3.96 117.5 -6.03 117.5 -8.59C117.5 -11.07 116.85 -13.01 115.57 -14.4ZM107.05 -15.07C107.66 -15.17 108.37 -15.23 109.18 -15.23C111.05 -15.23 112.5 -14.63 113.53 -13.43C114.55 -12.24 115.07 -10.62 115.07 -8.59C115.07 -6.61 114.72 -4.86 114.01 -3.36C113.31 -1.86 112.04 -1.11 110.21 -1.11C109.69 -1.11 109.11 -1.15 108.49 -1.24C107.87 -1.33 107.39 -1.44 107.05 -1.57Z M123.82 0L130.92 0L130.92 -0.89L128.49 -1.43L128.49 -15.07L130.92 -15.61L130.92 -16.5L123.82 -16.5L123.82 -15.61L126.25 -15.07L126.25 -1.43L123.82 -0.89Z M148.72 0L148.72 -3.97L147.69 -3.97L147.02 -1.51L141.83 -1.51L141.83 -15.07L144.26 -15.61L144.26 -16.5L137.16 -16.5L137.16 -15.61L139.59 -15.07L139.59 -1.43L137.16 -0.89L137.16 0Z M163.57 -10.5L163 -8.72L159.09 -8.72L159.09 -15.09L164.38 -15.09L164.95 -12.93L166 -12.93L166 -16.5L154.28 -16.5L154.28 -15.61L156.85 -15.07L156.85 -1.43L154.28 -0.89L154.28 0L166.68 0L166.68 -3.97L165.62 -3.97L164.92 -1.51L159.09 -1.51L159.09 -7.48L162.92 -7.48L163.57 -5.62L164.54 -5.62L164.54 -10.5Z"></path></g></g></svg>
